<svg xmlns="http://www.w3.org/2000/svg" width="347" height="347" viewBox="0 0 260 260" preserveAspectRatio="xMidYMid meet"><path d="M123.2 11.9c-10 3.5-16.1 11.9-16.2 22.3 0 4.7-.4 5.9-2.2 7.2a8.5 8.5 0 0 1-9.3.3c-11.2-7.6-32.2-8.2-46.7-1.5C38.2 45 38.1 46 48.4 46H57v14.2c0 10.8-.4 15.3-1.6 18.5L53.7 83H27l-.2-22.5-2.1 4.5c-1.9 3.8-2.2 6.3-2.2 15.6 0 10.7.1 11.2 3.8 18.6 4.4 9 12.2 16.8 21.1 21.1l5.9 2.9-8.9 9c-8.3 8.3-22.3 19.8-24.2 19.8-.5 0-2.3-.7-4.1-1.6-2.9-1.4-3.4-1.4-5.6 0-1.4.9-2.5 2.6-2.5 3.7 0 1.2-1.1 3.4-2.5 5.1C-3.1 169.4 3.1 184 16 184c4.9-.1 11-3 21.8-10.7l6-4.2 6.5 13.3L49 198c-.7 8.7-1 17.6-.6 19.9 1.5 9.4 9.2 19.4 18.6 24.2 6.6 3.3 18.6 3.8 26 1 9.1-3.4 16.9-11.3 19.9-20 .6-1.9 3.9-7.9 7.2-13.2l6.1-9.7 5.5-.4 5.4-.3 6.3 10c3.4 5.5 7.1 12.1 8 14.7 2.3 6.2 9 13.6 15.8 17.3 4.9 2.8 6.1 3 15.3 3 8.9 0 10.5-.3 15.1-2.7 10.4-5.5 18.4-18 18.4-28.6 0-2.6-.7-11-1.5-18.7-1.4-13.1-1.4-14.4.2-19.7 1-3.2 2-5.8 2.3-5.8s3.4 2.5 7 5.5c11 9.3 14.9 11.5 20.4 11.5 6 0 10.8-2.7 13-7.4 2.4-5 2-10.7-.9-15-1.4-2-2.5-4.6-2.5-5.7 0-5.3-3.9-7.3-9.4-4.8-2.3 1.1-3.1.7-8.8-4.2-3.5-3-11-10.7-16.6-17.2-10.2-11.7-10.4-11.9-8.5-13.9 1-1.1 4.9-3.6 8.7-5.5 8.7-4.4 17.3-12.8 21.2-20.8 2.7-5.5 2.9-6.9 2.9-17 0-9.9-.3-11.6-2.7-16.8-5.3-11.2-18.5-21.8-30.9-24.6-6.2-1.5-18.5-1.3-24.4.3-5.5 1.4-12.7 4.8-16.4 7.7-3.1 2.5-7.6 2.4-10.1-.1-1.5-1.5-2-3.4-2-7.3-.1-10.1-7-19.1-17.1-22.1-6.7-2-10.1-2-16.7.3zM79.5 79c0 2.9-3.4 4-5.4 1.7-1.8-2.3-.2-4.9 2.8-4.5 2 .2 2.6.8 2.6 2.8zm86.5 31c11.5 1.4 14.4 2.5 18.1 6.7 3 3.5 3.1 3.9 2.5 9.7-.9 9.1-2.4 17.7-3.1 18.4-.4.4-6.8.8-14.3 1-13 .3-13.9.2-17.2-2-1.9-1.3-5.6-5.5-8.1-9.3-7.7-11.6-12.7-13.2-19.3-6.1l-4.1 4.3-.1-3.8c-.5-10.6-12.6-17.6-21.9-12.6-2.5 1.3-2.7 1.6-.9 1.7 4.2 0 6 5.3 2.8 8.4-2.1 2.1-4 2-6.4-.4-2.6-2.6-2.7-2.5-3.5.9-1.4 6.4 3.1 14.4 9.5 17 1.9.8.6 1-6 .9-4.7 0-9.6-.3-11-.7-3.6-1-5.1-5-5.7-15.5-.6-9-.5-9.5 2.1-12.9 2.9-3.8 4.3-4.2 18-5.7 11-1.1 59.1-1.1 68.6 0zm-7.7 5.1c-3.5 1-5.4 2.9-2.9 2.9s4.9 4.5 3.7 6.8c-2 3.8-7.4 3.9-8.6.1-1.1-3.4-2.5-.9-2.5 4.5 0 16.1 20.8 21.7 28 7.5 2.6-5 2.5-8.5-.2-13.9-3.4-6.6-10.6-9.9-17.5-7.9z"/></svg>